<svg width="920" height="1080" viewBox="0 0 920 1080" fill="none" xmlns="http://www.w3.org/2000/svg" role="img" aria-labelledby="title desc">
  <title id="title">Repository dashboard preview</title>
  <desc id="desc">A stylized GitHub profile dashboard with repository cards and contribution graph.</desc>
  <rect width="920" height="1080" rx="48" fill="#18212F"/>
  <rect x="58" y="64" width="804" height="952" rx="30" fill="#F7F8F5"/>
  <rect x="98" y="104" width="724" height="116" rx="18" fill="#FFFFFF" stroke="#DFE4DF"/>
  <circle cx="154" cy="162" r="34" fill="#168C8C"/>
  <path d="M139 163.5C139 155.492 145.492 149 153.5 149C161.508 149 168 155.492 168 163.5V177H139V163.5Z" fill="#F7F8F5"/>
  <circle cx="153.5" cy="145.5" r="14.5" fill="#F7F8F5"/>
  <rect x="206" y="134" width="210" height="16" rx="8" fill="#18212F"/>
  <rect x="206" y="166" width="314" height="12" rx="6" fill="#7A8595"/>
  <rect x="658" y="136" width="118" height="42" rx="10" fill="#18212F"/>
  <rect x="98" y="254" width="344" height="210" rx="18" fill="#FFFFFF" stroke="#DFE4DF"/>
  <rect x="478" y="254" width="344" height="210" rx="18" fill="#FFFFFF" stroke="#DFE4DF"/>
  <rect x="98" y="498" width="344" height="210" rx="18" fill="#FFFFFF" stroke="#DFE4DF"/>
  <rect x="478" y="498" width="344" height="210" rx="18" fill="#FFFFFF" stroke="#DFE4DF"/>
  <g fill="#18212F">
    <rect x="132" y="296" width="170" height="18" rx="9"/>
    <rect x="512" y="296" width="154" height="18" rx="9"/>
    <rect x="132" y="540" width="188" height="18" rx="9"/>
    <rect x="512" y="540" width="132" height="18" rx="9"/>
  </g>
  <g fill="#7A8595">
    <rect x="132" y="334" width="250" height="12" rx="6"/>
    <rect x="132" y="360" width="200" height="12" rx="6"/>
    <rect x="512" y="334" width="224" height="12" rx="6"/>
    <rect x="512" y="360" width="256" height="12" rx="6"/>
    <rect x="132" y="578" width="236" height="12" rx="6"/>
    <rect x="132" y="604" width="180" height="12" rx="6"/>
    <rect x="512" y="578" width="220" height="12" rx="6"/>
    <rect x="512" y="604" width="192" height="12" rx="6"/>
  </g>
  <circle cx="144" cy="416" r="9" fill="#168C8C"/>
  <circle cx="524" cy="416" r="9" fill="#D69823"/>
  <circle cx="144" cy="660" r="9" fill="#E0604D"/>
  <circle cx="524" cy="660" r="9" fill="#247A50"/>
  <g fill="#DFE4DF">
    <rect x="166" y="407" width="72" height="12" rx="6"/>
    <rect x="546" y="407" width="72" height="12" rx="6"/>
    <rect x="166" y="651" width="72" height="12" rx="6"/>
    <rect x="546" y="651" width="72" height="12" rx="6"/>
  </g>
  <rect x="98" y="752" width="724" height="204" rx="18" fill="#FFFFFF" stroke="#DFE4DF"/>
  <rect x="132" y="794" width="224" height="18" rx="9" fill="#18212F"/>
  <g transform="translate(132 838)">
    <rect width="18" height="18" rx="4" fill="#DDE8DE"/>
    <rect x="28" width="18" height="18" rx="4" fill="#A9D7B8"/>
    <rect x="56" width="18" height="18" rx="4" fill="#247A50"/>
    <rect x="84" width="18" height="18" rx="4" fill="#DDE8DE"/>
    <rect x="112" width="18" height="18" rx="4" fill="#168C8C"/>
    <rect x="140" width="18" height="18" rx="4" fill="#A9D7B8"/>
    <rect x="168" width="18" height="18" rx="4" fill="#247A50"/>
    <rect x="196" width="18" height="18" rx="4" fill="#DDE8DE"/>
    <rect x="224" width="18" height="18" rx="4" fill="#168C8C"/>
    <rect x="252" width="18" height="18" rx="4" fill="#247A50"/>
    <rect x="280" width="18" height="18" rx="4" fill="#DDE8DE"/>
    <rect x="308" width="18" height="18" rx="4" fill="#A9D7B8"/>
    <rect x="336" width="18" height="18" rx="4" fill="#247A50"/>
    <rect x="364" width="18" height="18" rx="4" fill="#168C8C"/>
    <rect x="392" width="18" height="18" rx="4" fill="#DDE8DE"/>
    <rect x="420" width="18" height="18" rx="4" fill="#247A50"/>
    <rect x="448" width="18" height="18" rx="4" fill="#A9D7B8"/>
    <rect x="476" width="18" height="18" rx="4" fill="#168C8C"/>
    <rect x="504" width="18" height="18" rx="4" fill="#247A50"/>
    <rect x="532" width="18" height="18" rx="4" fill="#DDE8DE"/>
    <rect x="560" width="18" height="18" rx="4" fill="#A9D7B8"/>
    <rect x="588" width="18" height="18" rx="4" fill="#247A50"/>
    <rect y="30" width="18" height="18" rx="4" fill="#247A50"/>
    <rect x="28" y="30" width="18" height="18" rx="4" fill="#DDE8DE"/>
    <rect x="56" y="30" width="18" height="18" rx="4" fill="#168C8C"/>
    <rect x="84" y="30" width="18" height="18" rx="4" fill="#247A50"/>
    <rect x="112" y="30" width="18" height="18" rx="4" fill="#A9D7B8"/>
    <rect x="140" y="30" width="18" height="18" rx="4" fill="#DDE8DE"/>
    <rect x="168" y="30" width="18" height="18" rx="4" fill="#247A50"/>
    <rect x="196" y="30" width="18" height="18" rx="4" fill="#168C8C"/>
    <rect x="224" y="30" width="18" height="18" rx="4" fill="#A9D7B8"/>
    <rect x="252" y="30" width="18" height="18" rx="4" fill="#247A50"/>
    <rect x="280" y="30" width="18" height="18" rx="4" fill="#DDE8DE"/>
    <rect x="308" y="30" width="18" height="18" rx="4" fill="#168C8C"/>
    <rect x="336" y="30" width="18" height="18" rx="4" fill="#DDE8DE"/>
    <rect x="364" y="30" width="18" height="18" rx="4" fill="#247A50"/>
    <rect x="392" y="30" width="18" height="18" rx="4" fill="#A9D7B8"/>
    <rect x="420" y="30" width="18" height="18" rx="4" fill="#168C8C"/>
    <rect x="448" y="30" width="18" height="18" rx="4" fill="#DDE8DE"/>
    <rect x="476" y="30" width="18" height="18" rx="4" fill="#247A50"/>
    <rect x="504" y="30" width="18" height="18" rx="4" fill="#168C8C"/>
    <rect x="532" y="30" width="18" height="18" rx="4" fill="#A9D7B8"/>
    <rect x="560" y="30" width="18" height="18" rx="4" fill="#247A50"/>
    <rect x="588" y="30" width="18" height="18" rx="4" fill="#DDE8DE"/>
  </g>
</svg>
